HIERARCHY
ROOT mixamorig:Hips
{
	OFFSET 0.000000 201.639420 0.000000
	CHANNELS 6 Xposition Yposition Zposition Xrotation Yrotation Zrotation
	JOINT mixamorig:Spine
	{
		OFFSET 0.006200 19.524994 -2.481800
		CHANNELS 3 Xrotation Yrotation Zrotation
		JOINT mixamorig:Spine1
		{
			OFFSET -0.000900 22.835007 -2.825400
			CHANNELS 3 Xrotation Yrotation Zrotation
			JOINT mixamorig:Spine2
			{
				OFFSET -0.020600 26.552490 -3.193300
				CHANNELS 3 Xrotation Yrotation Zrotation
				JOINT mixamorig:Neck
				{
					OFFSET -0.060000 30.701813 1.352200
					CHANNELS 3 Xrotation Yrotation Zrotation
					JOINT mixamorig:Head
					{
						OFFSET -0.087200 22.547607 3.670900
						CHANNELS 3 Xrotation Yrotation Zrotation
						JOINT mixamorig:HeadTop_End
						{
							OFFSET -0.830600 40.355194 7.893500
							CHANNELS 3 Xrotation Yrotation Zrotation
							End Site
							{
								OFFSET 0.000000 30.592346 0.000000
							}
						}
						JOINT mixamorig:RightEye
						{
							OFFSET -6.302100 18.118591 16.197100
							CHANNELS 3 Xrotation Yrotation Zrotation
							End Site
							{
								OFFSET 0.000000 30.592346 0.000000
							}
						}
						JOINT mixamorig:LeftEye
						{
							OFFSET 6.741500 18.382690 16.401899
							CHANNELS 3 Xrotation Yrotation Zrotation
							End Site
							{
								OFFSET 0.000000 30.592346 0.000000
							}
						}
					}
				}
				JOINT mixamorig:LeftShoulder
				{
					OFFSET 11.924900 18.230499 1.425400
					CHANNELS 3 Xrotation Yrotation Zrotation
					JOINT mixamorig:LeftArm
					{
						OFFSET 25.435989 -0.697632 -5.229300
						CHANNELS 3 Xrotation Yrotation Zrotation
						JOINT mixamorig:LeftForeArm
						{
							OFFSET 54.684776 0.000000 0.000000
							CHANNELS 3 Xrotation Yrotation Zrotation
							JOINT mixamorig:LeftHand
							{
								OFFSET 55.098175 0.000000 0.000000
								CHANNELS 3 Xrotation Yrotation Zrotation
								JOINT mixamorig:LeftHandMiddle1
								{
									OFFSET 23.369751 0.000000 0.000000
									CHANNELS 3 Xrotation Yrotation Zrotation
									JOINT mixamorig:LeftHandMiddle2
									{
										OFFSET 6.378677 0.000000 0.000000
										CHANNELS 3 Xrotation Yrotation Zrotation
										JOINT mixamorig:LeftHandMiddle3
										{
											OFFSET 6.148331 0.000000 0.000000
											CHANNELS 3 Xrotation Yrotation Zrotation
											JOINT mixamorig:LeftHandMiddle4
											{
												OFFSET 6.582504 0.000000 0.000000
												CHANNELS 3 Xrotation Yrotation Zrotation
												End Site
												{
													OFFSET -1.168900 6.395691 1.028606
												}
											}
										}
									}
								}
								JOINT mixamorig:LeftHandThumb1
								{
									OFFSET 7.235672 -3.848206 5.434273
									CHANNELS 3 Xrotation Yrotation Zrotation
									JOINT mixamorig:LeftHandThumb2
									{
										OFFSET 6.568451 -3.792297 3.792300
										CHANNELS 3 Xrotation Yrotation Zrotation
										JOINT mixamorig:LeftHandThumb3
										{
											OFFSET 6.063080 -3.500519 3.500518
											CHANNELS 3 Xrotation Yrotation Zrotation
											JOINT mixamorig:LeftHandThumb4
											{
												OFFSET 4.793182 -2.767334 2.767349
												CHANNELS 3 Xrotation Yrotation Zrotation
												End Site
												{
													OFFSET 0.101639 6.054260 1.275483
												}
											}
										}
									}
								}
								JOINT mixamorig:LeftHandIndex1
								{
									OFFSET 23.101074 -0.309540 4.992809
									CHANNELS 3 Xrotation Yrotation Zrotation
									JOINT mixamorig:LeftHandIndex2
									{
										OFFSET 6.226883 0.000000 0.000000
										CHANNELS 3 Xrotation Yrotation Zrotation
										JOINT mixamorig:LeftHandIndex3
										{
											OFFSET 6.094330 0.000000 0.000000
											CHANNELS 3 Xrotation Yrotation Zrotation
											JOINT mixamorig:LeftHandIndex4
											{
												OFFSET 5.482605 0.000000 0.000000
												CHANNELS 3 Xrotation Yrotation Zrotation
												End Site
												{
													OFFSET -1.427902 5.233032 0.797164
												}
											}
										}
									}
								}
								JOINT mixamorig:LeftHandRing1
								{
									OFFSET 22.299240 0.021149 -3.964172
									CHANNELS 3 Xrotation Yrotation Zrotation
									JOINT mixamorig:LeftHandRing2
									{
										OFFSET 6.321869 0.000000 0.000000
										CHANNELS 3 Xrotation Yrotation Zrotation
										JOINT mixamorig:LeftHandRing3
										{
											OFFSET 5.899796 0.000000 0.000000
											CHANNELS 3 Xrotation Yrotation Zrotation
											JOINT mixamorig:LeftHandRing4
											{
												OFFSET 6.517899 0.000000 0.000000
												CHANNELS 3 Xrotation Yrotation Zrotation
												End Site
												{
													OFFSET -1.637299 6.232208 0.980890
												}
											}
										}
									}
								}
								JOINT mixamorig:LeftHandPinky1
								{
									OFFSET 20.463791 -0.302338 -8.562233
									CHANNELS 3 Xrotation Yrotation Zrotation
									JOINT mixamorig:LeftHandPinky2
									{
										OFFSET 6.908646 0.000000 0.000000
										CHANNELS 3 Xrotation Yrotation Zrotation
										JOINT mixamorig:LeftHandPinky3
										{
											OFFSET 4.622849 0.000000 0.000000
											CHANNELS 3 Xrotation Yrotation Zrotation
											JOINT mixamorig:LeftHandPinky4
											{
												OFFSET 5.216080 0.000000 0.000000
												CHANNELS 3 Xrotation Yrotation Zrotation
												End Site
												{
													OFFSET -0.606308 5.116241 0.814926
												}
											}
										}
									}
								}
							}
						}
					}
				}
				JOINT mixamorig:RightShoulder
				{
					OFFSET -12.001300 18.284088 1.348900
					CHANNELS 3 Xrotation Yrotation Zrotation
					JOINT mixamorig:RightArm
					{
						OFFSET -25.308500 -0.751312 -5.164599
						CHANNELS 3 Xrotation Yrotation Zrotation
						JOINT mixamorig:RightForeArm
						{
							OFFSET -54.684429 0.000000 0.000000
							CHANNELS 3 Xrotation Yrotation Zrotation
							JOINT mixamorig:RightHand
							{
								OFFSET -55.150291 0.000000 0.000000
								CHANNELS 3 Xrotation Yrotation Zrotation
								JOINT mixamorig:RightHandMiddle1
								{
									OFFSET -23.317566 0.000000 0.000000
									CHANNELS 3 Xrotation Yrotation Zrotation
									JOINT mixamorig:RightHandMiddle2
									{
										OFFSET -6.378403 0.000000 0.000000
										CHANNELS 3 Xrotation Yrotation Zrotation
										JOINT mixamorig:RightHandMiddle3
										{
											OFFSET -6.148193 0.000000 0.000000
											CHANNELS 3 Xrotation Yrotation Zrotation
											JOINT mixamorig:RightHandMiddle4
											{
												OFFSET -6.583389 0.000000 0.000000
												CHANNELS 3 Xrotation Yrotation Zrotation
												End Site
												{
													OFFSET 1.171692 6.395905 1.029786
												}
											}
										}
									}
								}
								JOINT mixamorig:RightHandThumb1
								{
									OFFSET -7.190521 -3.860474 5.435846
									CHANNELS 3 Xrotation Yrotation Zrotation
									JOINT mixamorig:RightHandThumb2
									{
										OFFSET -6.567429 -3.791718 3.791708
										CHANNELS 3 Xrotation Yrotation Zrotation
										JOINT mixamorig:RightHandThumb3
										{
											OFFSET -6.062469 -3.500153 3.500166
											CHANNELS 3 Xrotation Yrotation Zrotation
											JOINT mixamorig:RightHandThumb4
											{
												OFFSET -4.792618 -2.767029 2.767022
												CHANNELS 3 Xrotation Yrotation Zrotation
												End Site
												{
													OFFSET -0.100327 6.053253 1.276754
												}
											}
										}
									}
								}
								JOINT mixamorig:RightHandIndex1
								{
									OFFSET -23.048981 -0.310791 4.992554
									CHANNELS 3 Xrotation Yrotation Zrotation
									JOINT mixamorig:RightHandIndex2
									{
										OFFSET -6.227539 0.000000 0.000000
										CHANNELS 3 Xrotation Yrotation Zrotation
										JOINT mixamorig:RightHandIndex3
										{
											OFFSET -6.095047 0.000000 0.000000
											CHANNELS 3 Xrotation Yrotation Zrotation
											JOINT mixamorig:RightHandIndex4
											{
												OFFSET -5.484772 0.000000 0.000000
												CHANNELS 3 Xrotation Yrotation Zrotation
												End Site
												{
													OFFSET 1.420593 5.237305 0.797056
												}
											}
										}
									}
								}
								JOINT mixamorig:RightHandRing1
								{
									OFFSET -22.246323 0.020569 -3.963762
									CHANNELS 3 Xrotation Yrotation Zrotation
									JOINT mixamorig:RightHandRing2
									{
										OFFSET -6.322128 0.000000 0.000000
										CHANNELS 3 Xrotation Yrotation Zrotation
										JOINT mixamorig:RightHandRing3
										{
											OFFSET -5.900024 0.000000 0.000000
											CHANNELS 3 Xrotation Yrotation Zrotation
											JOINT mixamorig:RightHandRing4
											{
												OFFSET -6.518356 0.000000 0.000000
												CHANNELS 3 Xrotation Yrotation Zrotation
												End Site
												{
													OFFSET 1.636398 6.232697 0.982186
												}
											}
										}
									}
								}
								JOINT mixamorig:RightHandPinky1
								{
									OFFSET -20.411011 -0.303314 -8.561701
									CHANNELS 3 Xrotation Yrotation Zrotation
									JOINT mixamorig:RightHandPinky2
									{
										OFFSET -6.907349 0.000000 0.000000
										CHANNELS 3 Xrotation Yrotation Zrotation
										JOINT mixamorig:RightHandPinky3
										{
											OFFSET -4.623840 0.000000 0.000000
											CHANNELS 3 Xrotation Yrotation Zrotation
											JOINT mixamorig:RightHandPinky4
											{
												OFFSET -5.218353 0.000000 0.000000
												CHANNELS 3 Xrotation Yrotation Zrotation
												End Site
												{
													OFFSET 0.602097 5.118835 0.816273
												}
											}
										}
									}
								}
							}
						}
					}
				}
			}
		}
	}
	JOINT mixamorig:LeftUpLeg
	{
		OFFSET 18.168400 -13.561905 -0.039000
		CHANNELS 3 Xrotation Yrotation Zrotation
		JOINT mixamorig:LeftLeg
		{
			OFFSET 0.577358 -80.825211 -3.695000
			CHANNELS 3 Xrotation Yrotation Zrotation
			JOINT mixamorig:LeftFoot
			{
				OFFSET -0.577356 -83.370262 -6.520700
				CHANNELS 3 Xrotation Yrotation Zrotation
				JOINT mixamorig:LeftToeBase
				{
					OFFSET 0.750401 -20.798306 25.135401
					CHANNELS 3 Xrotation Yrotation Zrotation
					JOINT mixamorig:LeftToe_End
					{
						OFFSET -0.000500 0.001200 19.917799
						CHANNELS 3 Xrotation Yrotation Zrotation
						End Site
						{
							OFFSET 0.000000 19.917805 0.000000
						}
					}
				}
			}
		}
	}
	JOINT mixamorig:RightUpLeg
	{
		OFFSET -18.162500 -13.585098 -0.041000
		CHANNELS 3 Xrotation Yrotation Zrotation
		JOINT mixamorig:RightLeg
		{
			OFFSET -0.595024 -80.945297 -3.631900
			CHANNELS 3 Xrotation Yrotation Zrotation
			JOINT mixamorig:RightFoot
			{
				OFFSET 0.595024 -83.218193 -6.561200
				CHANNELS 3 Xrotation Yrotation Zrotation
				JOINT mixamorig:RightToeBase
				{
					OFFSET -0.753601 -20.807106 25.115000
					CHANNELS 3 Xrotation Yrotation Zrotation
					JOINT mixamorig:RightToe_End
					{
						OFFSET 0.000299 0.001700 19.918200
						CHANNELS 3 Xrotation Yrotation Zrotation
						End Site
						{
							OFFSET 0.000000 19.918203 0.000000
						}
					}
				}
			}
		}
	}
}
MOTION
Frames: 4
Frame Time: 0.033333
1.576698 94.395370 -3.149055 -40.567198 -32.649810 -19.880505 58.819690 2.782646 1.394595 10.734610 0.744713 -4.521338 17.520041 -0.085146 -4.562563 -10.626369 7.119770 2.460950 -15.542305 20.386161 10.545781 -0.000002 -0.000001 -0.000000 -0.000002 -0.000001 -0.000000 -0.000002 -0.000001 -0.000000 -37.559039 -4.830595 1.310665 -73.285034 -19.466183 -69.163834 0.000023 -49.481309 0.000017 -122.220033 3.139768 22.353686 0.405922 5.507046 -52.453155 3.387129 5.308601 -65.057463 0.282019 1.797454 -17.832381 -0.000003 0.000003 -0.000001 4.709211 9.560382 3.111987 19.473185 -1.474895 7.636927 -4.536188 -9.613110 1.492974 0.000004 0.000004 -0.000002 -0.212819 3.933710 -36.747131 2.942131 5.078902 -60.144624 0.513672 2.400819 -24.150514 -0.000002 -0.000001 -0.000002 -0.074386 5.736780 -61.061447 4.055038 5.569529 -72.094914 0.582660 2.548956 -25.747995 -0.000002 0.000002 -0.000001 -6.565565 4.545128 -72.425222 3.299614 5.267191 -64.107835 0.175341 1.424030 -14.038872 0.000000 0.000000 0.000003 -42.139819 -9.769745 -7.575439 -51.815646 45.272126 94.913866 0.000359 103.657478 -0.000359 -37.420008 -24.461460 -24.583519 3.413051 -7.186256 51.650242 6.296821 -4.359599 110.634660 0.248729 -1.503056 18.790272 0.000001 0.000000 -0.000000 8.377125 -4.904131 11.021998 21.620202 -18.183883 -18.379230 -0.702951 -49.821196 -32.535200 -0.000001 0.000001 -0.000003 -0.920051 1.683590 12.434975 0.748116 -2.533453 32.898275 0.615638 -2.316065 29.767826 -0.000000 0.000000 -0.000001 -3.349042 -2.600431 57.010554 5.440860 -4.590907 99.698154 1.689392 -3.590697 50.382245 -0.000001 -0.000000 -0.000003 -3.996450 -3.303942 64.593857 4.058840 -4.618642 82.610523 2.315547 -4.026771 59.787207 -0.000001 -0.000001 0.000003 -71.049574 -3.347705 23.805798 121.038192 -8.911321 -0.502457 -15.042453 -5.641159 -0.544040 1.342382 -0.005103 0.660227 0.000000 0.000001 -0.000000 -24.803245 22.573536 -4.675704 140.025654 6.373362 0.878518 -46.929820 -17.471849 23.442456 -30.134289 -0.000000 0.000000 -0.000000 -0.000002 -0.000000 
0.482182 93.723251 -2.862389 -40.111003 -30.816803 -19.456779 57.648552 2.526117 1.277735 10.957078 0.667623 -3.628180 17.462212 -0.001231 -3.672117 -9.657654 7.148137 1.824482 -14.781895 19.248108 10.262173 -0.000001 0.000000 0.000000 -0.000001 0.000000 0.000000 -0.000001 0.000000 0.000000 -37.438845 -5.360433 0.241970 -70.643335 -17.418094 -69.792027 0.000013 -52.942005 0.000020 -121.060308 2.346005 23.816798 0.405922 5.507045 -52.453155 3.387129 5.308599 -65.057463 0.282022 1.797453 -17.832377 0.000001 0.000002 -0.000001 4.613241 9.264046 3.106137 19.473187 -1.474902 7.636931 -4.536186 -9.613109 1.492972 -0.000002 0.000002 0.000000 -0.263534 3.872736 -36.845490 2.942288 5.079001 -60.146407 0.513705 2.400882 -24.151054 0.000003 -0.000000 -0.000001 -0.074385 5.736784 -61.061447 4.066762 5.573280 -72.215699 0.582659 2.548953 -25.747998 -0.000001 -0.000001 -0.000001 -6.273888 4.584688 -72.158264 3.334403 5.283877 -64.486002 0.195710 1.503098 -14.836368 0.000000 -0.000000 0.000003 -40.774303 -9.884194 -7.342483 -49.795392 45.578057 93.005381 0.000190 105.871743 -0.000202 -37.198470 -26.556585 -24.799800 3.413051 -7.186256 51.650239 6.296821 -4.359600 110.634667 0.248727 -1.503058 18.790276 0.000001 -0.000000 0.000001 8.377123 -4.904131 11.021999 21.620212 -18.183888 -18.379228 -0.702958 -49.821196 -32.535203 0.000004 -0.000000 -0.000002 -0.926109 1.674990 12.522900 0.766846 -2.562156 33.319807 0.615637 -2.316067 29.767832 0.000002 0.000000 0.000000 -3.349043 -2.600431 57.010554 5.440859 -4.590909 99.698161 1.689394 -3.590699 50.382242 0.000000 0.000001 -0.000004 -3.996449 -3.303941 64.593857 4.058842 -4.618642 82.610523 2.315545 -4.026773 59.787200 0.000001 0.000000 0.000003 -71.719561 -3.872683 23.853847 121.475720 -9.089279 -0.504815 -14.420946 -7.251745 0.227279 1.331101 -0.004804 0.640783 0.000000 0.000001 0.000000 -22.568262 20.468537 -4.793194 140.133010 5.246399 0.873144 -48.515595 -18.071998 23.929902 -30.028718 -0.000013 -0.000005 -0.000000 0.000001 0.000000 
-1.164993 92.955368 -2.449982 -39.552953 -28.888319 -19.231362 56.560882 2.715778 2.026979 10.994700 0.626802 -2.743046 17.218441 0.105918 -2.789795 -8.567438 7.101492 0.970491 -13.585283 17.629591 9.488110 -0.000000 0.000000 0.000000 -0.000000 0.000000 0.000000 -0.000000 0.000000 0.000000 -37.343284 -5.948126 -0.572817 -67.661650 -16.848752 -69.605918 0.000004 -54.929648 0.000005 -121.796179 1.218781 24.024253 0.405923 5.507051 -52.453155 3.387129 5.308603 -65.057463 0.282017 1.797453 -17.832379 0.000003 0.000002 0.000003 4.516962 8.967842 3.099861 19.473185 -1.474889 7.636931 -4.536188 -9.613106 1.492974 0.000001 0.000002 0.000002 -0.314470 3.811928 -36.943872 2.942460 5.079088 -60.148210 0.513723 2.400929 -24.151612 -0.000002 0.000000 -0.000003 -0.074385 5.736789 -61.061447 4.078502 5.577001 -72.336525 0.582647 2.548953 -25.747993 -0.000000 0.000002 0.000002 -5.982609 4.627141 -71.891689 3.369276 5.300309 -64.864230 0.217180 1.581910 -15.633909 -0.000001 0.000004 0.000002 -39.593941 -10.140857 -7.788345 -48.441877 45.965148 91.349764 0.000070 107.200379 -0.000063 -37.675945 -28.055861 -25.172063 3.413051 -7.186256 51.650242 6.296822 -4.359599 110.634667 0.248728 -1.503056 18.790270 0.000000 -0.000000 -0.000000 8.377124 -4.904131 11.021998 21.620209 -18.183886 -18.379231 -0.702958 -49.821200 -32.535200 0.000002 0.000001 -0.000002 -0.932236 1.666341 12.610808 0.785821 -2.590720 33.741329 0.615637 -2.316067 29.767836 0.000001 0.000000 -0.000003 -3.349042 -2.600432 57.010558 5.440861 -4.590906 99.698154 1.689392 -3.590699 50.382242 0.000000 0.000001 -0.000002 -3.996450 -3.303942 64.593864 4.058843 -4.618642 82.610523 2.315547 -4.026772 59.787214 -0.000001 0.000001 0.000003 -72.392963 -4.954396 24.102879 122.267872 -9.022993 -0.507269 -14.128977 -9.442437 0.793186 1.319979 -0.004508 0.621062 0.000000 0.000001 -0.000000 -20.173124 17.624052 -4.583170 140.207268 3.888572 0.872769 -50.534937 -18.649143 24.096848 -29.923151 0.000026 0.000004 0.000000 -0.000001 -0.000000 
-2.827560 92.122009 -2.229301 -39.294024 -27.105138 -19.192555 56.212252 3.310246 3.276412 10.755098 0.625669 -1.982742 16.693471 0.218802 -2.029120 -7.600486 6.857506 0.366613 -12.796859 15.952344 8.321263 -0.000001 -0.000001 -0.000001 -0.000001 -0.000001 -0.000001 -0.000001 -0.000001 -0.000001 -37.260854 -6.655175 -1.150945 -64.827935 -19.009304 -68.074959 0.000019 -54.983330 0.000015 -125.358191 -0.393863 22.605904 0.405924 5.507046 -52.453158 3.387128 5.308602 -65.057463 0.282022 1.797455 -17.832379 0.000002 0.000001 0.000001 4.420358 8.671840 3.093158 19.473187 -1.474893 7.636928 -4.536188 -9.613108 1.492977 0.000001 0.000002 -0.000000 -0.365621 3.751292 -37.042325 2.942616 5.079168 -60.150013 0.513738 2.400967 -24.152136 -0.000000 0.000001 -0.000002 -0.074385 5.736787 -61.061447 4.090250 5.580711 -72.457310 0.582653 2.548955 -25.747995 -0.000000 -0.000001 0.000001 -5.691754 4.672485 -71.625578 3.404276 5.316530 -65.242493 0.239743 1.660396 -16.431512 0.000000 -0.000000 -0.000001 -38.498539 -10.434548 -8.477580 -47.863227 46.405186 89.594658 0.000035 107.812706 -0.000026 -38.786694 -28.972805 -26.059569 3.413051 -7.186256 51.650242 6.296820 -4.359597 110.634660 0.248729 -1.503057 18.790272 0.000002 -0.000000 0.000001 8.377124 -4.904130 11.021996 21.620206 -18.183888 -18.379230 -0.702954 -49.821200 -32.535203 -0.000001 0.000000 0.000003 -0.938284 1.657686 12.698739 0.804960 -2.619141 34.162844 0.615637 -2.316067 29.767832 0.000001 0.000000 0.000001 -3.349043 -2.600432 57.010554 5.440860 -4.590907 99.698161 1.689392 -3.590698 50.382245 -0.000001 0.000000 0.000001 -3.996450 -3.303942 64.593864 4.058841 -4.618642 82.610523 2.315546 -4.026772 59.787207 0.000000 0.000001 -0.000001 -72.886991 -6.170217 24.427489 122.985930 -8.969175 -0.509732 -13.736670 -11.544089 1.181020 1.308730 -0.004243 0.601548 0.000000 -0.000001 -0.000000 -17.929018 14.815114 -4.186465 140.329788 2.561660 0.875520 -52.426340 -19.119311 24.086377 -29.817566 0.000002 0.000004 0.000000 0.000001 0.000000 
